<?xml version="1.0" encoding="UTF-8" standalone="no"?><!DOCTYPE svg PUBLIC "-//W3C//DTD SVG 1.1//EN" "http://www.w3.org/Graphics/SVG/1.1/DTD/svg11.dtd"><svg width="100%" height="100%" viewBox="0 0 150 299" version="1.1" xmlns="http://www.w3.org/2000/svg" xmlns:xlink="http://www.w3.org/1999/xlink" xml:space="preserve" xmlns:serif="http://www.serif.com/" style="fill-rule:evenodd;clip-rule:evenodd;stroke-linejoin:round;stroke-miterlimit:2;"><path d="M0,298.68l0,-148.641l0.002,0c-0.001,-0.233 -0.002,-0.466 -0.002,-0.699c0,-0.233 0.001,-0.466 0.002,-0.699c0.123,-26.787 7.314,-51.918 19.802,-73.621c0.179,-0.311 0.359,-0.622 0.541,-0.932c13.124,-22.433 31.932,-41.143 54.442,-54.15l0.233,0.135l0,-0.269c21.892,-12.597 47.271,-19.804 74.32,-19.804l0.233,-0l0,149.34c0,0.233 -0.001,0.466 -0.002,0.699c-0.123,26.787 -7.314,51.918 -19.802,73.621l-0.269,0.466c-13.091,22.562 -31.918,41.39 -54.481,54.481l-0.233,0.135l-0.233,0.134c-21.829,12.561 -47.126,19.762 -74.087,19.804l-0.233,0l-0.233,-0Z" style="fill:#fff;"/></svg>