<?xml version="1.0" encoding="UTF-8" standalone="no"?><!DOCTYPE svg PUBLIC "-//W3C//DTD SVG 1.1//EN" "http://www.w3.org/Graphics/SVG/1.1/DTD/svg11.dtd"><svg width="100%" height="100%" viewBox="0 0 449 298" version="1.1" xmlns="http://www.w3.org/2000/svg" xmlns:xlink="http://www.w3.org/1999/xlink" xml:space="preserve" xmlns:serif="http://www.serif.com/" style="fill-rule:evenodd;clip-rule:evenodd;stroke-linejoin:round;stroke-miterlimit:2;"><path d="M299.146,148.641l-0.233,0l-0.235,-0l-149.338,0c-27.049,0 -52.428,7.207 -74.32,19.804l-0.233,0.134c-22.51,13.006 -41.318,31.717 -54.442,54.15c-0.181,0.31 -0.362,0.621 -0.541,0.932c-12.488,21.703 -19.679,46.834 -19.802,73.621c-0.001,0.233 -0.002,0.466 -0.002,0.699c0,0 0,-148.641 0,-148.641c0,-0.233 0.001,-0.466 0.002,-0.699c0.125,-27.172 7.522,-52.639 20.343,-74.553c13.169,-22.51 32.062,-41.272 54.675,-54.284c21.892,-12.597 47.271,-19.804 74.32,-19.804l74.32,-0l75.019,-0l0.233,0l149.338,0c-0.123,26.787 -7.314,51.918 -19.802,73.621l-0.269,0.466c-13.091,22.562 -31.918,41.39 -54.481,54.481l-0.466,0.269c-21.829,12.561 -47.126,19.762 -74.087,19.804Z" style="fill:#fff;"/></svg>