<?xml version="1.0" encoding="UTF-8" standalone="no"?><!DOCTYPE svg PUBLIC "-//W3C//DTD SVG 1.1//EN" "http://www.w3.org/Graphics/SVG/1.1/DTD/svg11.dtd"><svg width="100%" height="100%" viewBox="0 0 448 178" version="1.1" xmlns="http://www.w3.org/2000/svg" xmlns:xlink="http://www.w3.org/1999/xlink" xml:space="preserve" xmlns:serif="http://www.serif.com/" style="fill-rule:evenodd;clip-rule:evenodd;stroke-linejoin:round;stroke-miterlimit:2;"><path d="M447.785,0c-0.124,26.979 -7.417,52.278 -20.071,74.087c-13.181,22.717 -32.178,41.649 -54.947,54.75c-21.829,12.561 -47.126,19.762 -74.087,19.803l-0.233,0l-149.107,0l-0.233,0l-0.002,-0l-75.018,-0l-37.51,-0c-15.78,0 -29.297,9.765 -34.833,23.578c-0.721,1.8 -1.307,3.669 -1.745,5.593l0,-28.472c0,-0.233 0.001,-0.466 0.002,-0.699c0.125,-27.172 7.522,-52.639 20.343,-74.553c12.988,-22.2 31.543,-40.755 53.743,-53.743l0.466,-0.271c21.935,-12.727 47.399,-20.031 74.553,-20.073l0.233,-0l298.445,-0Z" style="fill:#fff;"/></svg>