<?xml version="1.0" encoding="UTF-8" standalone="no"?><!DOCTYPE svg PUBLIC "-//W3C//DTD SVG 1.1//EN" "http://www.w3.org/Graphics/SVG/1.1/DTD/svg11.dtd"><svg width="100%" height="100%" viewBox="0 0 299 448" version="1.1" xmlns="http://www.w3.org/2000/svg" xmlns:xlink="http://www.w3.org/1999/xlink" xml:space="preserve" xmlns:serif="http://www.serif.com/" style="fill-rule:evenodd;clip-rule:evenodd;stroke-linejoin:round;stroke-miterlimit:2;"><path d="M149.573,298.68l-0.233,0c-27.049,0 -52.428,7.207 -74.32,19.804c-22.613,13.012 -41.506,31.774 -54.675,54.284c-12.821,21.915 -20.218,47.382 -20.343,74.553l-0.002,-0l-0,-297.981c0,-0.233 0.001,-0.466 0.002,-0.699c0.125,-27.172 7.522,-52.639 20.343,-74.553c13.169,-22.51 32.062,-41.272 54.675,-54.284c21.892,-12.597 47.271,-19.804 74.32,-19.804l0.233,0l74.087,-0l75.019,0c-27.154,0.042 -52.618,7.346 -74.553,20.073l-0.466,-0.269l-0,0.541c-22.2,12.988 -40.755,31.543 -53.743,53.743c-12.821,21.915 -20.218,47.382 -20.343,74.553l-0.002,-0l-0,150.039Z" style="fill:#fff;"/></svg>